# xmcd CD database file
#
# Track frame offsets:
#	150
#	23845
#	37277
#	55685
#	79180
#	88330
#	115640
#	134230
#	156580
#	174332
#	189042
#
# Disc length: 2780 seconds
#
# Revision: 0
# Processed by: cddbd v1.4b41PL2 Copyright (c) Steve Scherf et al.
# Submitted via: CD2WAV32(EN) R3.18
#
DISCID=920ada0b
DTITLE=Rika Shinohara - Daylight
DYEAR=1900
DGENRE=
TTITLE0=daylight
TTITLE1=Stay on the line
TTITLE2=Waste Beer
TTITLE3=Vegas 66
TTITLE4=Shortsong
TTITLE5=Yoru
TTITLE6=ONNA TATI
TTITLE7=Kaze huku machi
TTITLE8=Rest of the night
TTITLE9=Last chance store
TTITLE10=Cookie
EXTD=
EXTT0=
EXTT1=
EXTT2=
EXTT3=
EXTT4=
EXTT5=
EXTT6=
EXTT7=
EXTT8=
EXTT9=
EXTT10=
PLAYORDER=
